# xmcd CD database file
#
# Track frame offsets:
#	150
#	16437
#	35951
#	49787
#	56526
#	65212
#	77101
#	92961
#	110970
#	129132
#	137566
#	146714
#	155343
#	167879
#	178441
#	189187
#	201351
#	218391
#	220743
#	233236
#	250258
#	260717
#	269546
#
# Disc length: 3692 seconds
#
# Revision: 0
# Processed by: cddbd v1.5.2PL0 Copyright (c) Steve Scherf et al.
# Submitted via: CDex 1.74
#
DISCID=670e6a17
DTITLE=Jacques Loussier - SOLO PIANO - Impressions on Chopin's Nocturnes
DYEAR=2004
DGENRE=Jazz
TTITLE0=Nocturne No. 1 in B-flat minor, Op. 9, No. 1
TTITLE1=Nocturne No. 2 in E-flat major, Op. 9, No. 2
TTITLE2=Nocturne No. 3 in B major, Op. 9, No. 3
TTITLE3=Nocturne No. 4 in F major, Op. 15, No. 1
TTITLE4=Nocturne No. 5 in F-shar major Op. 15, No. 2
TTITLE5=Nocturne No. 6 in G-minor, Op. 15, No. 3
TTITLE6=Nocturne No. 7 in C-shar minor Op. 27, No. 1
TTITLE7=Nocturne No. 8 in D-flat major, Op. 27, No. 2
TTITLE8=Nocturne No. 9 in B major, Op. 32, No. 1
TTITLE9=Nocturne No. 10 in A-flat major, Op. 32, No. 2
TTITLE10=Nocturne No. 11 in G minor, Op. 37, No. 1
TTITLE11=Nocturne No. 12 in G major, Op. 37, No. 2
TTITLE12=Nocturne No. 13 in C minor, Op. 48, No. 1
TTITLE13=Nocturne No. 14 in F-sharp minor, Op. 48, No. 2
TTITLE14=Nocturne No. 15 in F minor, Op. 55, No. 1
TTITLE15=Nocturne No. 16 in E-flat major Op. 55, No. 2
TTITLE16=Nocturne No. 17 in B major, Op. 62, No. 1
TTITLE17=Nocturne No. 18 in E major, Op. 62, No. 2
TTITLE18=Nocturne No. 19 in E minor, Op. 72, No. 1
TTITLE19=Nocturne No. 20 in C-sharp minor, Op. posthume
TTITLE20=Nocturne No. 21 in C minor, Op. posthume
TTITLE21=Bonus track 1
TTITLE22=Bonus track 2
EXTD=YEAR: 2004
EXTT0=
EXTT1=
EXTT2=
EXTT3=
EXTT4=
EXTT5=
EXTT6=
EXTT7=
EXTT8=
EXTT9=
EXTT10=
EXTT11=
EXTT12=
EXTT13=
EXTT14=
EXTT15=
EXTT16=
EXTT17=
EXTT18=
EXTT19=
EXTT20=
EXTT21=
EXTT22=
PLAYORDER=
